<svg xmlns="http://www.w3.org/2000/svg" viewBox="0 0 1200 44" width="100%" role="img" aria-label="Stack"><title>Stack</title><rect width="1200" height="44" rx="8" fill="#0d1117"/><rect x="20" y="18" width="8" height="8" fill="#00e5ff" opacity="0.9"/><rect x="48" y="8" width="16" height="4" fill="#e6edf3"/><rect x="44" y="12" width="8" height="4" fill="#e6edf3"/><rect x="60" y="12" width="8" height="4" fill="#e6edf3"/><rect x="44" y="16" width="12" height="4" fill="#e6edf3"/><rect x="48" y="20" width="12" height="4" fill="#e6edf3"/><rect x="56" y="24" width="12" height="4" fill="#e6edf3"/><rect x="44" y="28" width="8" height="4" fill="#e6edf3"/><rect x="60" y="28" width="8" height="4" fill="#e6edf3"/><rect x="48" y="32" width="16" height="4" fill="#e6edf3"/><rect x="80" y="8" width="24" height="4" fill="#e6edf3"/><rect x="80" y="12" width="4" height="4" fill="#e6edf3"/><rect x="88" y="12" width="8" height="4" fill="#e6edf3"/><rect x="100" y="12" width="4" height="4" fill="#e6edf3"/><rect x="88" y="16" width="8" height="4" fill="#e6edf3"/><rect x="88" y="20" width="8" height="4" fill="#e6edf3"/><rect x="88" y="24" width="8" height="4" fill="#e6edf3"/><rect x="88" y="28" width="8" height="4" fill="#e6edf3"/><rect x="84" y="32" width="16" height="4" fill="#e6edf3"/><rect x="124" y="8" width="8" height="4" fill="#e6edf3"/><rect x="120" y="12" width="16" height="4" fill="#e6edf3"/><rect x="116" y="16" width="8" height="4" fill="#e6edf3"/><rect x="132" y="16" width="8" height="4" fill="#e6edf3"/><rect x="116" y="20" width="8" height="4" fill="#e6edf3"/><rect x="132" y="20" width="8" height="4" fill="#e6edf3"/><rect x="116" y="24" width="24" height="4" fill="#e6edf3"/><rect x="116" y="28" width="8" height="4" fill="#e6edf3"/><rect x="132" y="28" width="8" height="4" fill="#e6edf3"/><rect x="116" y="32" width="8" height="4" fill="#e6edf3"/><rect x="132" y="32" width="8" height="4" fill="#e6edf3"/><rect x="160" y="8" width="16" height="4" fill="#e6edf3"/><rect x="156" y="12" width="8" height="4" fill="#e6edf3"/><rect x="172" y="12" width="8" height="4" fill="#e6edf3"/><rect x="152" y="16" width="8" height="4" fill="#e6edf3"/><rect x="152" y="20" width="8" height="4" fill="#e6edf3"/><rect x="152" y="24" width="8" height="4" fill="#e6edf3"/><rect x="156" y="28" width="8" height="4" fill="#e6edf3"/><rect x="172" y="28" width="8" height="4" fill="#e6edf3"/><rect x="160" y="32" width="16" height="4" fill="#e6edf3"/><rect x="188" y="8" width="12" height="4" fill="#e6edf3"/><rect x="208" y="8" width="8" height="4" fill="#e6edf3"/><rect x="192" y="12" width="8" height="4" fill="#e6edf3"/><rect x="208" y="12" width="8" height="4" fill="#e6edf3"/><rect x="192" y="16" width="8" height="4" fill="#e6edf3"/><rect x="204" y="16" width="8" height="4" fill="#e6edf3"/><rect x="192" y="20" width="16" height="4" fill="#e6edf3"/><rect x="192" y="24" width="8" height="4" fill="#e6edf3"/><rect x="204" y="24" width="8" height="4" fill="#e6edf3"/><rect x="192" y="28" width="8" height="4" fill="#e6edf3"/><rect x="208" y="28" width="8" height="4" fill="#e6edf3"/><rect x="188" y="32" width="12" height="4" fill="#e6edf3"/><rect x="208" y="32" width="8" height="4" fill="#e6edf3"/><line x1="244" y1="22" x2="1148" y2="22" stroke="#1a5f6e" stroke-width="1" opacity="0.7"/><rect x="1164" y="18" width="8" height="8" fill="none" stroke="#00e5ff" stroke-width="1.2" opacity="0.9"/></svg>